<?xml version="1.0" encoding="UTF-8" standalone="no"?>
<!DOCTYPE svg PUBLIC "-//W3C//DTD SVG 1.1//EN" "http://www.w3.org/Graphics/SVG/1.1/DTD/svg11.dtd">
<svg width="100%" height="100%" viewBox="0 0 11812 11812" version="1.1" xmlns="http://www.w3.org/2000/svg" xmlns:xlink="http://www.w3.org/1999/xlink" xml:space="preserve" xmlns:serif="http://www.serif.com/" style="fill-rule:evenodd;clip-rule:evenodd;stroke-linejoin:round;stroke-miterlimit:2;">
    <g transform="matrix(1.068246,0,0,1.063827,-384.719207,-189.67319)">
        <path d="M8746.507,3816.907L8746.811,3872.782C8746.811,3872.782 8751.596,4751.087 8753.778,5146.616C8756.923,5716.497 8764.818,7153.198 8764.818,7153.198L8765.121,7208.374L7564.246,7890.377L6849.675,8330.227L5905.665,8873.737L4767.149,8210.271L4138.61,7862.689L3013.955,7273.259L3029.168,3885.723L4486.251,3056.546L4861.391,2847.035L5905.56,2285.335L8746.507,3816.907ZM5905.512,2392L4906.247,2929.545L4532.079,3138.512L3122.534,3940.637L3107.822,7216.421L4182.851,7779.842L4813.227,8128.44L5905.948,8765.219L6801.921,8249.366L7516.727,7809.371L8671.208,7153.717C8671.208,7153.717 8663.313,5717.018 8660.168,5147.137C8657.986,4751.606 8653.201,3873.296 8653.201,3873.296L5905.512,2392Z" style="fill:white;"/>
    </g>
    <g transform="matrix(1.019563,0,0,1.020623,-98.000974,-86.330724)">
        <path d="M5905.512,2392L8785.164,3936C8785.164,3936 8789.529,4731.961 8791.711,5127.492C8794.855,5697.372 8804.03,7355.282 8804.03,7355.282L7649.269,8004.875L6917.56,8456.029L5906.733,9035L4669.746,8317.878L4101.36,8007.912L2975,7420.641L2990.414,4006.192L4532.079,3138.512L4906.247,2929.545L5905.512,2392ZM5905.588,2503.241L4953.432,3015.444L4580.082,3223.955L3088.238,4063.595L3073.35,7361.397C3073.35,7361.397 4146.742,7921.052 4148.357,7921.913L4716.743,8231.879L4718.976,8233.136L5907.029,8921.888L6867.396,8371.819L7597.754,7921.498L7601.143,7919.501L8705.632,7298.188C8703.986,7000.838 8696.426,5634.594 8693.631,5128.032C8691.805,4796.963 8688.449,4185.348 8687.404,3994.784L5905.588,2503.241Z" style="fill:white;"/>
    </g>
    <g transform="matrix(1.368824,0,0,1.224106,-1383.178632,-746.201317)">
        <path d="M5641.772,4313.925L4992.7,4313.925L4903.389,4618.335L4320.985,4618.335L4895.914,2926.196L5324.783,2642.28L5787.414,2926.196L6328.581,4618.335L5732.34,4618.335L5641.772,4313.925ZM5522.272,3915.173L5318.494,3252.264L5115.973,3915.173L5522.272,3915.173Z" style="fill-rule:nonzero;"/>
        <path d="M5641.772,4313.925L4992.7,4313.925L4903.389,4618.335L4320.985,4618.335L4895.914,2926.196L5324.783,2642.28L5787.414,2926.196L6328.581,4618.335L5732.34,4618.335L5641.772,4313.925ZM5750.781,4589.743L6292.282,4589.743L5766.605,2946.041L5325.263,2675.19L4916.639,2945.703L4358.052,4589.743L4884.867,4589.743L4974.178,4285.333L5660.213,4285.333L5750.781,4589.743ZM5080.218,3943.765L5294.298,3243.021L5342.675,3242.969L5558.099,3943.765L5080.218,3943.765ZM5522.272,3915.173L5318.494,3252.264L5115.973,3915.173L5522.272,3915.173Z" style="fill:white;"/>
    </g>
    <g transform="matrix(1.743369,0,0,1.186162,-3801.685256,-2597.808013)">
        <path d="M4688.598,6426.545L5195.062,6426.545L6019.741,7242.338L6019.741,6429.766L6447.536,6429.766L6447.536,7367.002L5887.91,7743.786L5042.926,6962.217L5170.287,7702.485L4688.598,7379.562L4688.598,6426.545Z" style="fill:rgb(255,5,0);fill-rule:nonzero;"/>
        <path d="M4688.598,6426.545L5195.062,6426.545L6019.741,7242.338L6019.741,6429.766L6447.536,6429.766L6447.536,7367.002L5887.91,7743.786L5042.926,6962.217L5170.287,7702.485L4688.598,7379.562L4688.598,6426.545ZM4708.674,6456.052L4708.674,7360.589L5140.572,7650.133L5023.463,6969.451L5053.619,6937.244L5889.417,7710.316L6427.46,7348.063L6427.46,6459.273L6039.817,6459.273L6039.817,7242.338L6008.531,7266.817L5188.935,6456.052L4708.674,6456.052Z" style="fill:white;"/>
    </g>
    <g transform="matrix(0.87024,0,0,0.640191,2462.562481,983.298442)">
        <path d="M2194.464,8326.348L4005.281,9481.458L5718.18,8306.476L5718.179,11146.018L5012.547,11784.523L5002.763,9917.311L3982.557,10640.122L2976.031,9949.95L2995.166,11761.024L2230.347,11146.017L2194.464,8326.348Z" style="fill-rule:nonzero;"/>
        <path d="M2194.464,8326.348L4005.281,9481.458L5718.18,8306.476L5718.179,11146.018L5012.547,11784.523L5002.763,9917.311L3982.557,10640.122L2976.031,9949.95L2995.166,11761.024L2230.347,11146.017L2194.464,8326.348ZM2235.793,8413.103L2270.171,11114.52L2953.922,11664.338L2934.863,9860.488L3982.257,10578.683L5042.512,9827.498L5052.234,11682.935L5677.96,11116.734L5677.961,8395.302L4005.92,9542.257L2235.793,8413.103Z" style="fill:white;"/>
    </g>
    <g transform="matrix(1,0,0,1,201,0)">
        <g>
            <g transform="matrix(0.288821,0.623897,-0.665283,0.307979,6691.530145,1466.856061)">
                <path d="M2793.38,4876.159L2986.852,5183.679C3044.494,5382.987 2483.108,5507.722 2105.916,5636.401L1837.95,3916.609L2793.38,4876.159Z" style="fill:rgb(255,5,0);"/>
            </g>
            <g transform="matrix(0.858753,0,0,0.91512,2513.224699,2537.843386)">
                <path d="M1854.269,2594.753L1828.366,4629.3L1207.26,4941.544L1217.842,2137.515L1854.269,2594.753Z"/>
            </g>
            <g transform="matrix(-0.774479,0.430526,-0.318626,-0.573181,7059.947918,9409.204402)">
                <path d="M1828.173,4866.651L2179.268,5732.138L1477.079,5732.138L1828.173,4866.651Z" style="fill:rgb(255,5,0);"/>
            </g>
        </g>
    </g>
    <g transform="matrix(1,0,0,1,-177.320089,10.475115)">
        <g>
            <g transform="matrix(-0.29172,0.624368,0.665785,0.311071,5126.979714,1443.405453)">
                <path d="M2793.38,4876.159L2986.852,5183.679C3044.494,5382.987 2483.108,5507.722 2105.916,5636.401L1837.95,3916.609L2793.38,4876.159Z"/>
            </g>
            <g transform="matrix(-0.860809,-0.003039,-0.003239,0.91731,9311.495494,2531.745016)">
                <path d="M1854.269,2594.753L1828.366,4629.3L1207.26,4941.544L1217.842,2137.515L1854.269,2594.753Z" style="fill:rgb(255,5,0);"/>
            </g>
            <g transform="matrix(0.774809,0.434298,0.321418,-0.573425,4729.568819,9403.46026)">
                <path d="M1828.173,4866.651L2179.268,5732.138L1477.079,5732.138L1828.173,4866.651Z"/>
            </g>
        </g>
    </g>
    <g transform="matrix(0.532496,0,0,0.482345,2459.784093,4590.348584)">
        <path d="M6502.63,7806.044L7521.837,7140.122L7532.51,8492.377L6502.63,9253.706L5407.432,8476.048L5401.777,7156.452L6502.63,7806.044Z" style="fill:rgb(255,5,0);"/>
    </g>
    <g transform="matrix(0.976952,0.119902,-0.098106,0.799357,1776.574291,1426.205468)">
        <path d="M3341.713,2302.646L2273.749,3360.517L1659.904,2989.741L3598.241,1217.919L3341.713,2302.646Z" style="fill:rgb(255,5,0);"/>
    </g>
    <g transform="matrix(-0.976952,0.119902,0.098106,0.799357,10062.992291,1421.603943)">
        <path d="M3341.713,2302.646L2273.749,3360.517L1659.904,2989.741L3598.241,1217.919L3341.713,2302.646Z" style="fill:rgb(255,5,0);"/>
    </g>
    <g transform="matrix(1.03093,0,0,1,2127.490816,346.861744)">
        <path d="M1485.447,4186.688L1485.447,7073.779L867.48,7059.95L867.48,3772.543L1485.447,4186.688Z"/>
    </g>
    <g transform="matrix(0.982842,-0.417427,0.420783,0.812214,-688.783704,2290.210154)">
        <path d="M1490.782,6753.817L1841.68,7540.999L1660.773,7963.552L883.858,6753.817L1490.782,6753.817Z" style="fill:rgb(255,5,0);"/>
    </g>
    <g transform="matrix(-1.03093,0,0,1,9679.473522,346.861744)">
        <path d="M1485.447,4186.688L1485.447,7073.779L867.48,7059.95L867.48,3772.543L1485.447,4186.688Z"/>
    </g>
    <g transform="matrix(-0.982842,-0.417427,-0.420783,0.812214,12495.748043,2290.210154)">
        <path d="M1490.782,6753.817L1841.68,7540.999L1660.773,7963.552L883.858,6753.817L1490.782,6753.817Z" style="fill:rgb(255,5,0);"/>
    </g>
</svg>
